<svg xmlns="http://www.w3.org/2000/svg" xmlns:xlink="http://www.w3.org/1999/xlink" width="177.372" height="44.538" viewBox="0 0 177.372 44.538"><defs><clipPath id="a"><rect width="177.372" height="44.538" fill="none"/></clipPath></defs><g clip-path="url(#a)"><path d="M6504.181-2486.535h11.432c6.171,0,10.441,2.863,10.441,9.455,0,6.785-3.659,9.754-10.172,9.754h-4.231v9.531h-7.47Zm7.47,13.189h1.255c2.707,0,5.375,0,5.375-3.5,0-3.623-2.48-3.662-5.374-3.662h-1.256Z" transform="translate(-6504.161 2486.896)" fill="#fff"/><path d="M6568.025-2464.122h8.956v6.327h-16.426v-28.74h7.47Z" transform="translate(-6504.161 2486.896)" fill="#fff"/><path d="M6587.29-2464.122h8.957v6.327h-16.425v-28.74h7.467Z" transform="translate(-6504.161 2486.896)" fill="#fff"/><path d="M6608.186-2462.789l-1.982,4.994h-7.917l11.045-28.74h8.155l10.824,28.74h-7.968l-1.867-4.994Zm5.221-14.864h-.077l-3.086,9.147h6.213Z" transform="translate(-6504.161 2486.896)" fill="#fff"/><path d="M6654.045-2457.795h-9.3l-7.051-11.052h-.077v11.052h-7.468v-28.74h11.168c5.675,0,9.981,2.709,9.981,8.843,0,3.965-2.206,7.4-6.286,8.118Zm-16.426-15.855h.726c2.437,0,5.182-.457,5.182-3.584s-2.745-3.58-5.182-3.58h-.726Z" transform="translate(-6504.161 2486.896)" fill="#fff"/><path d="M6656.343-2486.535h10.6a14.425,14.425,0,0,1,14.593,14.372,14.454,14.454,0,0,1-14.593,14.368h-10.6Zm7.47,22.412h1.676c4.461,0,8.271-2.439,8.271-8.04,0-5.144-3.394-8.045-8.2-8.045h-1.751Z" transform="translate(-6504.161 2486.896)" fill="#fff"/><g transform="translate(-6504.161 2486.896)"><path d="M6504.161-2454.484h3.212v5.1h.031c.205-1.328,1.559-1.693,2.88-1.693h.953c4.063,0,4.566,1.443,4.566,3.6v1.525c0,2.156-.5,3.594-4.566,3.594h-.939c-1.939,0-2.742-.644-3.091-1.693h-.036v1.559h-3.01Zm3.01,8.18c0,1.275.671,1.559,1.941,1.559H6511c1.539,0,1.691-.53,1.691-1.477v-.992c0-.943-.151-1.477-1.691-1.477h-1.889c-1.27,0-1.941.284-1.941,1.559Z" fill="#fff"/><path d="M6517.044-2445.457c0-2.3,1.6-2.435,4.715-2.435,1.757,0,2.726.048,3.344.678v-.745c0-.828-.247-1.126-1.5-1.126h-1.891c-.936,0-1.2.082-1.237.678h-3.11c0-2.286,1.138-2.67,3.847-2.67h3.728c2.209,0,3.381,1.048,3.381,3.036v5.548h-3.045v-.963c-.886.914-1.222,1.1-2.825,1.1h-2.191c-1.959.015-3.212-.413-3.212-2.4Zm5.721,1.106c2.206,0,2.408-.327,2.408-.89,0-.635-.185-.866-1.958-.866h-1.422c-1.354,0-1.638.3-1.638,1,0,.549.435.76,1.689.76Z" fill="#fff"/><path d="M6529.992-2450.943h3.209v1.357h.036c.568-1.174,1.689-1.491,3.412-1.491,1.989,0,4.765.086,4.765,3.733v4.85H6538.2v-4.85c0-.832-.667-1.246-2.074-1.246h-.736c-1.372,0-2.192.631-2.192,1.843v4.253h-3.209Z" fill="#fff"/><path d="M6542.906-2454.484h3.212v6.327h.6l2.827-2.786h4.215l-4.282,3.96,4.8,4.489h-4.1l-3.43-3.382h-.635v3.382h-3.212Z" fill="#fff"/><path d="M6555.32-2450.943h3.212v1.357h.033c.568-1.174,1.689-1.492,3.412-1.492,1.989,0,4.765.087,4.765,3.734v4.85h-3.209v-4.85c0-.832-.671-1.246-2.074-1.246h-.738c-1.372,0-2.189.63-2.189,1.843v4.253h-3.212Z" fill="#fff"/><path d="M6568.354-2447.729c0-2.781,1.889-3.349,3.527-3.349h4.8c1.638,0,3.527.568,3.527,3.349v2.021c0,2.781-1.889,3.349-3.527,3.349h-4.8c-1.638,0-3.527-.568-3.527-3.349Zm3.209,1.41c0,1.208.72,1.574,2.192,1.574h.77c2.074,0,2.473-.27,2.473-1.391v-1.164c0-1.127-.4-1.391-2.473-1.391h-.77c-1.472,0-2.192.366-2.192,1.573Z" fill="#fff"/><path d="M6582.757-2448.657h-1.607v-2.286h1.607v-1.987h3.21v1.987h4.984v2.286h-4.984v3.247c0,.631.469.766,1.236.766,1.04,0,1.323-.232,1.323-1.016v-.563h2.808v1.03c0,1.607-1.068,2.834-3.626,2.834h-1.272c-1.973,0-3.679-.616-3.679-2.949Z" fill="#fff"/><path d="M6593.03-2447.18c0-3.2,1.6-3.9,3.945-3.9h2.243c3.409,0,4.816.717,4.816,3.647v1.425h-7.792v.515c0,.9.632,1.14,1.97,1.14h.987c1.739,0,1.825-.462,1.825-.957h3.01v.365c0,2.117-1.908,2.584-4.232,2.584h-2.41c-2.122,0-4.362-.4-4.362-4.013Zm7.893-.712c0-1.011-.471-1.194-2.343-1.194-2.088,0-2.338.183-2.338,1.194Z" fill="#fff"/><path d="M6613.587-2454.485h1.439v11.991h-1.439Z" fill="#fff"/><path d="M6617.42-2454.485h1.438v1.555h-1.438Zm0,3.542h1.438v8.449h-1.438Z" fill="#fff"/><path d="M6621.382-2450.943h1.34v1h.034c.6-.876,1.419-1.131,2.86-1.131h2.324a2.764,2.764,0,0,1,2.76,1.559c.536-1.14,1.688-1.559,3.161-1.559h1.739c2.309,0,3.729,1,3.729,2.921v5.663h-1.439v-5.5c0-.981-.433-1.92-2.723-1.92h-1.022c-2.594,0-2.943,1.059-2.943,2.416v5h-1.438v-5.119c0-1.637-.52-2.3-2.81-2.3h-1.439c-1.84,0-2.692.76-2.692,2.117v5.3h-1.441Z" fill="#fff"/><path d="M6641.525-2454.485h1.437v1.555h-1.437Zm0,3.542h1.437v8.449h-1.437Z" fill="#fff"/><path d="M6646.594-2449.784h-1.874v-1.159h1.874v-2h1.439v2h5.7v1.159h-5.7v4.211c0,1.573.551,2.054,2.122,2.054h.455c1.905,0,2.206-.4,2.206-2.17v-.63h1.171v.929c0,1.688-.168,3.031-3.276,3.031h-.79c-2.694,0-3.327-1.3-3.327-2.671Z" fill="#fff"/><path d="M6655.647-2447.662c0-3.065,2.139-3.416,4.179-3.416h2.307c2.577,0,4.434.649,4.434,3.666v.944h-9.484v.529c0,1.924.936,2.42,3.446,2.42h1.975c1.806,0,2.54-.231,2.624-1.525h1.439v.168c0,1.935-1.624,2.517-4.3,2.517h-2.606c-1.874,0-4.013-.352-4.013-3.465Zm9.481-.529c0-.861-.652-1.723-3-1.723h-2.1c-2.276,0-2.81.366-2.945,2.286h8.045Z" fill="#fff"/><path d="M6679.3-2442.494h-1.34v-1.342h-.033c-.417,1.029-1.588,1.477-3.094,1.477h-2.007c-2.607,0-4.431-.645-4.431-3.566v-1.487c0-2.7,1.054-3.666,4.516-3.666h2.191c1.636,0,2.425.385,2.724,1.265h.033v-4.672h1.441Zm-9.467-3.445c0,1.641.52,2.42,2.861,2.42h2.341c2.138,0,2.824-.9,2.824-2.435v-1.607c0-2.026-1.186-2.353-3.125-2.353h-1.941c-1.973,0-2.959.366-2.96,2.32Z" fill="#fff"/></g><path d="M6537.154-2482.277a9.956,9.956,0,0,1,8.081,4.148,6.159,6.159,0,0,0-2.295-.433,5.9,5.9,0,0,0-5.954,6.092v.077a5.973,5.973,0,0,0,6.033,6.163,5.891,5.891,0,0,0,5.952-6.091v-.072c0-.231-.017-.462-.038-.689a11.812,11.812,0,0,0-11.779-11.052,11.658,11.658,0,0,0-3.541.568,14.932,14.932,0,0,1,9.438-3.33,14.605,14.605,0,0,1,14.771,14.435,14.6,14.6,0,0,1-14.771,14.44,14.606,14.606,0,0,1-14.774-14.44,14.077,14.077,0,0,1,1.732-6.77A9.9,9.9,0,0,1,6537.154-2482.277Z" transform="translate(-6504.161 2486.896)" fill="#fff"/></g></svg>